<svg width="75" height="75" viewBox="0 0 75 75" fill="none" xmlns="http://www.w3.org/2000/svg">
<path d="M66.8542 5.87085H8.14579C3.65416 5.87085 0 9.52501 0 14.0166V60.9834C0 65.475 3.65416 69.1292 8.14579 69.1292H66.8542C71.3458 69.1292 75 65.475 75 60.9834V14.0166C75 9.52501 71.3458 5.87085 66.8542 5.87085ZM72.7984 60.9834C72.7984 64.2611 70.1319 66.9276 66.8542 66.9276H8.14579C4.8681 66.9276 2.20157 64.2611 2.20157 60.9834V14.0166C2.20157 10.739 4.8681 8.07242 8.14579 8.07242H66.8542C70.1319 8.07242 72.7984 10.739 72.7984 14.0166V60.9834Z" fill="#950067"/>
<path d="M69.2025 17.6125H5.79746C5.18953 17.6125 4.69667 18.1053 4.69667 18.7133C4.69667 19.3214 5.18953 19.8141 5.79746 19.8141H69.2025C69.8105 19.8141 70.3033 19.3214 70.3033 18.7133C70.3033 18.1053 69.8105 17.6125 69.2025 17.6125Z" fill="#950067"/>
<path d="M8.1458 13.9433C8.43641 13.9433 8.71967 13.8259 8.92369 13.6204C9.12916 13.4164 9.24658 13.1331 9.24658 12.8425C9.24658 12.5532 9.12916 12.2686 8.92369 12.0646C8.71967 11.8591 8.43641 11.7417 8.1458 11.7417C7.85519 11.7417 7.57192 11.8591 7.36791 12.0646C7.16243 12.2686 7.04502 12.5532 7.04502 12.8425C7.04502 13.1329 7.16243 13.4164 7.36791 13.6204C7.57192 13.8259 7.85519 13.9433 8.1458 13.9433Z" fill="#950067"/>
<path d="M17.5391 13.9433C17.8283 13.9433 18.113 13.8259 18.317 13.6204C18.5225 13.4164 18.6399 13.1331 18.6399 12.8425C18.6399 12.5532 18.5225 12.2686 18.317 12.0646C18.113 11.8591 17.8283 11.7417 17.5391 11.7417C17.2485 11.7417 16.9653 11.8591 16.7613 12.0646C16.5558 12.2686 16.4384 12.5532 16.4384 12.8425C16.4384 13.1329 16.5558 13.4164 16.7613 13.6204C16.9653 13.8259 17.2485 13.9433 17.5391 13.9433Z" fill="#950067"/>
<path d="M12.8425 13.9433C13.1331 13.9433 13.4163 13.8259 13.6204 13.6204C13.8258 13.4164 13.9433 13.1331 13.9433 12.8425C13.9433 12.5532 13.8258 12.2686 13.6204 12.0646C13.4163 11.8591 13.1331 11.7417 12.8425 11.7417C12.5533 11.7417 12.2686 11.8591 12.0646 12.0646C11.8591 12.2686 11.7417 12.5532 11.7417 12.8425C11.7417 13.1329 11.8591 13.4164 12.0646 13.6204C12.2686 13.8259 12.5533 13.9433 12.8425 13.9433Z" fill="#950067"/>
<path d="M27.7108 30.8508C27.2809 30.421 26.5839 30.421 26.1542 30.8508L14.4125 42.5924C13.9826 43.0225 13.9826 43.7193 14.4125 44.1492L26.1542 55.8909C26.369 56.1058 26.6508 56.2132 26.9325 56.2132C27.2141 56.2132 27.4959 56.1058 27.7108 55.8909C28.1407 55.4609 28.1407 54.764 27.7108 54.3341L16.7475 43.3709L27.7108 32.4077C28.1407 31.9777 28.1407 31.2808 27.7108 30.8508Z" fill="#950067"/>
<path d="M48.8458 30.8508C48.416 30.421 47.7189 30.421 47.2892 30.8508C46.8593 31.2808 46.8593 31.9777 47.2892 32.4076L58.2526 43.3708L47.2892 54.334C46.8593 54.764 46.8593 55.4609 47.2892 55.8908C47.5041 56.1056 47.7859 56.2131 48.0675 56.2131C48.3492 56.2131 48.631 56.1056 48.8458 55.8908L60.5875 44.1491C61.0174 43.719 61.0174 43.0222 60.5875 42.5923L48.8458 30.8508Z" fill="#950067"/>
<path d="M42.5729 29.4203C42.0016 29.2131 41.3701 29.5075 41.1622 30.0786L31.7689 55.9103C31.5611 56.4818 31.8558 57.1132 32.4272 57.3211C32.5513 57.3663 32.6783 57.3876 32.8033 57.3876C33.253 57.3876 33.6753 57.1097 33.8379 56.6628L43.2313 30.8311C43.439 30.2597 43.1442 29.6282 42.5729 29.4203Z" fill="#950067"/>
</svg>
