<svg width="32" height="32" viewBox="0 0 32 32" fill="none" xmlns="http://www.w3.org/2000/svg">
<path d="M6.95652 26C5.8125 26 4.86957 25.0802 4.86957 23.9643V16.6696L4.34783 16.7969C4.23913 16.9347 4.19293 17.0222 3.91304 17.221C3.46739 17.5391 2.77717 17.8571 1.84783 17.8571C0.855978 17.8571 0 16.9824 0 15.885V15.6094L0.195652 15.3973L4.86957 10.7958V7H16V18.4297C16 19.3866 15.3071 20.2215 14.3478 20.423L9.04348 21.5469V23.9643C9.04348 25.0802 8.10054 26 6.95652 26ZM6.95652 24.6429C7.35054 24.6429 7.65217 24.3486 7.65217 23.9643V20.4442L8.19565 20.317L14.0652 19.1083C14.3913 19.0393 14.6087 18.7531 14.6087 18.4297V11.75H5.84783L1.45652 16.0971C1.51359 16.3834 1.63315 16.5 1.84783 16.5C2.47554 16.5 2.86413 16.3145 3.1087 16.1395C3.35326 15.9646 3.41304 15.8426 3.41304 15.8426L3.54348 15.6094L3.82609 15.5246L5.3913 15.1217L6.26087 14.9096V23.9643C6.26087 24.3486 6.5625 24.6429 6.95652 24.6429ZM6.26087 10.3929H14.6087V8.35714H6.26087V10.3929Z" fill="#950067"/>
</svg>
