<svg width="75" height="75" viewBox="0 0 75 75" fill="none" xmlns="http://www.w3.org/2000/svg">
<g clip-path="url(#clip0)">
<path d="M68.7684 14.2573H47.9769V11.0677C47.9769 9.9159 47.0466 8.9856 45.8948 8.9856H29.1199C27.9681 8.9856 27.0378 9.9159 27.0378 11.0677V14.2573H6.24631C2.80567 14.2573 0 17.063 0 20.5036V59.7682C0 63.2089 2.80567 66.0145 6.24631 66.0145H68.7537C72.1943 66.0145 75 63.2089 75 59.7682V20.5036C75.0147 17.063 72.2091 14.2573 68.7684 14.2573ZM43.8127 13.1498V17.8899H31.202V13.1498H43.8127ZM68.7684 61.8503H6.24631C5.0945 61.8503 4.1642 60.92 4.1642 59.7682V20.5036C4.1642 19.3518 5.0945 18.4215 6.24631 18.4215H27.0378V19.972C27.0378 21.1238 27.9681 22.0541 29.1199 22.0541H45.8948C47.0466 22.0541 47.9769 21.1238 47.9769 19.972V18.4215H68.7537C69.9055 18.4215 70.8358 19.3518 70.8358 20.5036V59.7682H70.8505C70.8505 60.92 69.9202 61.8503 68.7684 61.8503Z" fill="#950067"/>
<path d="M65.062 25.6423H37.5074C36.3556 25.6423 35.4253 26.5726 35.4253 27.7244C35.4253 28.8762 36.3556 29.8065 37.5074 29.8065H65.062C66.2138 29.8065 67.1441 28.8762 67.1441 27.7244C67.1441 26.5726 66.2138 25.6423 65.062 25.6423Z" fill="#950067"/>
<path d="M65.062 35.728H37.5074C36.3556 35.728 35.4253 36.6583 35.4253 37.8101C35.4253 38.9619 36.3556 39.8922 37.5074 39.8922H65.062C66.2138 39.8922 67.1441 38.9619 67.1441 37.8101C67.1441 36.6583 66.2138 35.728 65.062 35.728Z" fill="#950067"/>
<path d="M65.062 45.8285H37.5074C36.3556 45.8285 35.4253 46.7588 35.4253 47.9106C35.4253 49.0624 36.3556 49.9927 37.5074 49.9927H65.062C66.2138 49.9927 67.1441 49.0624 67.1441 47.9106C67.1441 46.7588 66.2138 45.8285 65.062 45.8285Z" fill="#950067"/>
<path d="M26.5948 23.6932H9.95274C8.80094 23.6932 7.87064 24.6235 7.87064 25.7753V45.0459C7.87064 46.1977 8.80094 47.128 9.95274 47.128H26.5948C27.7466 47.128 28.6769 46.1977 28.6769 45.0459V25.7753C28.6769 24.6383 27.7466 23.6932 26.5948 23.6932ZM24.5127 42.9638H12.0496V27.8722H24.5127V42.9638Z" fill="#950067"/>
<path d="M26.5948 52.3997H9.95274C8.80094 52.3997 7.87064 53.33 7.87064 54.4818C7.87064 55.6336 8.80094 56.5639 9.95274 56.5639H26.5948C27.7466 56.5639 28.6769 55.6336 28.6769 54.4818C28.6769 53.33 27.7466 52.3997 26.5948 52.3997Z" fill="#950067"/>
</g>
<defs>
<clipPath id="clip0">
<rect width="75" height="75" fill="white"/>
</clipPath>
</defs>
</svg>
